<svg id="Layer_1" data-name="Layer 1" xmlns="http://www.w3.org/2000/svg" viewBox="0 0 52.99 10.09"><defs><style>.cls-1{fill:#fff;}</style></defs><title>logo2</title><path class="cls-1" d="M0,9.9,1,0H3L5.41,6.19,7.78,0H9.84l1,9.9h-2L8.27,3.49,6,9.65H4.81L2.56,3.49,1.94,9.9Z"/><path class="cls-1" d="M15,10.09a2.9,2.9,0,0,1-1.54-.42,3,3,0,0,1-1.1-1.16A3.46,3.46,0,0,1,12,6.81a3.48,3.48,0,0,1,.39-1.66A3,3,0,0,1,13.47,4,2.91,2.91,0,0,1,15,3.56a3,3,0,0,1,1.22.25,2.42,2.42,0,0,1,.93.69V3.75H19V9.89H17.15v-.8a2.91,2.91,0,0,1-1,.74A2.73,2.73,0,0,1,15,10.09Zm.55-1.57a1.65,1.65,0,0,0,.85-.19,1.55,1.55,0,0,0,.58-.6,1.8,1.8,0,0,0,.21-.88,1.77,1.77,0,0,0-.19-.9,1.58,1.58,0,0,0-.6-.62,1.75,1.75,0,0,0-1.7,0,1.59,1.59,0,0,0-.59.6,1.9,1.9,0,0,0,0,1.75,1.57,1.57,0,0,0,.58.6A1.65,1.65,0,0,0,15.55,8.52Z"/><path class="cls-1" d="M22.49,10.09a3.73,3.73,0,0,1-1.4-.25,2.59,2.59,0,0,1-1-.72l.77-1.24a3,3,0,0,0,.8.62,1.82,1.82,0,0,0,.84.22,1,1,0,0,0,.4-.08.63.63,0,0,0,.27-.23.62.62,0,0,0,.1-.36.52.52,0,0,0-.14-.38,1.27,1.27,0,0,0-.41-.25L22,7.14a6.26,6.26,0,0,1-.71-.35,1.71,1.71,0,0,1-.56-.5,1.33,1.33,0,0,1-.21-.77,1.66,1.66,0,0,1,.32-1,2.11,2.11,0,0,1,.88-.68A3.19,3.19,0,0,1,23,3.57a3.61,3.61,0,0,1,1,.14,6.09,6.09,0,0,1,1,.42l-.59,1.2A2.64,2.64,0,0,0,23,4.82a.9.9,0,0,0-.55.15.45.45,0,0,0-.2.38.46.46,0,0,0,.21.38A2.25,2.25,0,0,0,23,6l.59.23a5.25,5.25,0,0,1,.82.37,1.55,1.55,0,0,1,.61.52,1.63,1.63,0,0,1,.2.87,1.94,1.94,0,0,1-.32,1.13,2,2,0,0,1-.92.71A3.83,3.83,0,0,1,22.49,10.09Z"/><path class="cls-1" d="M28.27,10.09a3.73,3.73,0,0,1-1.4-.25,2.59,2.59,0,0,1-1-.72l.77-1.24a3,3,0,0,0,.8.62,1.82,1.82,0,0,0,.84.22,1,1,0,0,0,.4-.08A.63.63,0,0,0,29,8.41a.62.62,0,0,0,.1-.36.52.52,0,0,0-.14-.38,1.27,1.27,0,0,0-.41-.25l-.71-.3a6.26,6.26,0,0,1-.71-.35,1.71,1.71,0,0,1-.56-.5,1.33,1.33,0,0,1-.21-.77,1.66,1.66,0,0,1,.32-1,2.11,2.11,0,0,1,.88-.68,3.19,3.19,0,0,1,1.29-.25,3.61,3.61,0,0,1,1,.14,6.09,6.09,0,0,1,1.07.42l-.68,1.2a2.64,2.64,0,0,0-1.39-.5.9.9,0,0,0-.55.15.45.45,0,0,0-.2.38.46.46,0,0,0,.21.38,2.25,2.25,0,0,0,.52.28l.59.23a5.25,5.25,0,0,1,.82.37,1.55,1.55,0,0,1,.56.53A1.63,1.63,0,0,1,31,8a1.94,1.94,0,0,1-.32,1.13,2,2,0,0,1-.92.71A3.83,3.83,0,0,1,28.27,10.09Z"/><path class="cls-1" d="M33.24,2.48a1.06,1.06,0,0,1-.55-.15,1.12,1.12,0,0,1-.4-.4,1.06,1.06,0,0,1-.15-.6,1,1,0,0,1,.15-.55,1.13,1.13,0,0,1,.4-.39,1.06,1.06,0,0,1,.55-.06,1,1,0,0,1,.55.15,1.12,1.12,0,0,1,.39.39,1,1,0,0,1,.15.55,1.08,1.08,0,0,1-.15.55,1.11,1.11,0,0,1-.39.4A1,1,0,0,1,33.24,2.48ZM32.32,9.9V3.75h1.84V9.89Z"/><path class="cls-1" d="M38,9.9,34.73,3.75H36.9l1.67,3.71,1.67-3.71h2.17L39.18,9.89Z"/><path class="cls-1" d="M46,10.09a3.68,3.68,0,0,1-1.79-.43A3.32,3.32,0,0,1,43,8.49a3.08,3.08,0,0,1-.46-1.67,3.15,3.15,0,0,1,.26-1.28,3.22,3.22,0,0,1,.73-1,3.39,3.39,0,0,1,1.09-.7,3.54,3.54,0,0,1,1.34-.25A3.43,3.43,0,0,1,47.6,4,2.88,2.88,0,0,1,48.73,5.1a3.27,3.27,0,0,1,.4,1.65V7.1H44.38a1.53,1.53,0,0,0,.21.82,1.45,1.45,0,0,0,.6.54,1.94,1.94,0,0,0,.89.2,1.86,1.86,0,0,0,.85-.19,2.3,2.3,0,0,0,.71-.59L49,8.51a3,3,0,0,1-1.22,1.16A3.71,3.71,0,0,1,46,10.09Zm-1.54-4H47.3a1.38,1.38,0,0,0-.3-.66,1.28,1.28,0,0,0-.5-.4,1.6,1.6,0,0,0-.68-.14,1.7,1.7,0,0,0-.71.14,1.2,1.2,0,0,0-.49.4,1.28,1.28,0,0,0-.18.62Z"/><path class="cls-1" d="M51.78,10.09a1.17,1.17,0,0,1-.61-.16,1.2,1.2,0,0,1-.43-.43,1.23,1.23,0,0,1,0-1.21,1.2,1.2,0,0,1,.44-.43,1.18,1.18,0,0,1,.61-.16,1.15,1.15,0,0,1,.61.16,1.24,1.24,0,0,1,.43.43,1.21,1.21,0,0,1,0,1.21,1.23,1.23,0,0,1-.43.43A1.15,1.15,0,0,1,51.78,10.09Z"/></svg>